/* XPM */
static char *cbca3111553146c8e5046810db0c5f89A47ZZdZCiXcnn9cY[] = {
/* columns rows colors chars-per-pixel */
"64 64 157 2 ",
"   c None",
".  c #083F08",
"X  c #064406",
"o  c #054E05",
"O  c #0C440C",
"+  c #0B4B0B",
"@  c #035403",
"#  c #035B03",
"$  c #0C530C",
"%  c #0A5C0A",
"&  c #164C16",
"*  c #194A19",
"=  c #135413",
"-  c #145C14",
";  c #1C541C",
":  c #1C5D1C",
">  c #046404",
",  c #036C03",
"<  c #0B640B",
"1  c #0B6C0B",
"2  c #047404",
"3  c #057B05",
"4  c #0C740C",
"5  c #0C7C0C",
"6  c #136413",
"7  c #136B13",
"8  c #1B641B",
"9  c #1B6C1B",
"0  c #137413",
"q  c #137B13",
"w  c #1B741B",
"e  c #1B7C1B",
"r  c #254425",
"t  c #234823",
"y  c #215321",
"u  c #235C23",
"i  c #2E522E",
"p  c #2B5D2B",
"a  c #315D31",
"s  c #236423",
"d  c #236B23",
"f  c #296529",
"g  c #2B6C2B",
"h  c #247424",
"j  c #237B23",
"k  c #2A732A",
"l  c #2B7B2B",
"z  c #326C32",
"x  c #3B643B",
"c  c #327632",
"v  c #327C32",
"b  c #3D743D",
"n  c #387B38",
"m  c #048304",
"M  c #048C04",
"N  c #0B840B",
"B  c #0B8C0B",
"V  c #049404",
"C  c #059B05",
"Z  c #0C940C",
"A  c #0B9C0B",
"S  c #148414",
"D  c #138B13",
"F  c #1B831B",
"G  c #1C8B1C",
"H  c #149414",
"J  c #179817",
"K  c #159A15",
"L  c #189418",
"P  c #1A951A",
"I  c #1A971A",
"U  c #1B931B",
"Y  c #1E9A1E",
"T  c #1C9B1C",
"R  c #00A300",
"E  c #01A401",
"W  c #04A404",
"Q  c #00AA00",
"!  c #04AC04",
"~  c #0AA50A",
"^  c #0BA30B",
"/  c #0AA80A",
"(  c #08AF08",
")  c #0AAC0A",
"_  c #00B000",
"`  c #04B204",
"'  c #02B102",
"]  c #00BB00",
"[  c #03B903",
"{  c #0BB30B",
"}  c #09BC09",
"|  c #13A413",
" . c #16A116",
".. c #17A717",
"X. c #13A413",
"o. c #10A810",
"O. c #13A813",
"+. c #11AD11",
"@. c #13A913",
"#. c #1CA21C",
"$. c #1AAC1A",
"%. c #12B412",
"&. c #1FB11F",
"*. c #1CB21C",
"=. c #208220",
"-. c #238123",
";. c #238223",
":. c #248124",
">. c #258625",
",. c #248424",
"<. c #208B20",
"1. c #208E20",
"2. c #258925",
"3. c #278827",
"4. c #238B23",
"5. c #2A812A",
"6. c #298729",
"7. c #2E822E",
"8. c #2C872C",
"9. c #2B832B",
"0. c #2A8E2A",
"q. c #2C8E2C",
"w. c #2B8B2B",
"e. c #269726",
"r. c #229322",
"t. c #279D27",
"y. c #249B24",
"u. c #2B942B",
"i. c #2D9F2D",
"p. c #2C9C2C",
"a. c #338333",
"s. c #358C35",
"d. c #338B33",
"f. c #3A853A",
"g. c #388B38",
"h. c #3B8B3B",
"j. c #329432",
"k. c #319D31",
"l. c #369936",
"z. c #319B31",
"x. c #3A943A",
"c. c #3A943A",
"v. c #23A523",
"b. c #21AB21",
"n. c #22AD22",
"m. c #2AA02A",
"M. c #2AA52A",
"N. c #31A031",
"B. c #3CA23C",
"V. c #3CA23C",
"C. c #3BB63B",
"Z. c #38BE38",
"A. c #03C103",
"S. c #06C906",
"D. c #09CA09",
"F. c #05D405",
"G. c #409640",
/* pixels */
"      l l J g m V C       0.    5.; N 6 5 2 m 1 B D     g M V ` )             0 q S b.  t.h   :.    m.&.x - % = 3 0         j   ",
"        S B M V M 7     l.^  .j H u 9 @ 3 m M S S G l     m m ] Z X.          9 < ;   l >.0 d e   B.H <.h C m 6 , D   9 4 >.    ",
"        9 0 7 1 V G       x.G :.5 g ; 1 * D 9 3.D ~ d   w D V ` C W           d w < q   d 5 1 9       s F Z 3 : B q w 0 G a.h   ",
"        7 2 , m m w     i.e.  -.F   < 7   w.    s.B w q 5 B V F V C D L       g 7 0 s   -.2 N 9     f   H ! O.F C s.  7 4 h :   ",
"A 8.  q < 5 , , < 1           d s l q     3.    T F p N D m R , m 1 B q H j N 1 B B   6 k N C 0     q w q R ( 4 w k     G N 5 c ",
"I O.9 q a.h . o $ 0 k   q.L e 7 3 N     4.F   4.B F 0 N 7 N 4 m , > 5 5 5 8 ; ; 4 S F 0 N D l.X.L w j g 8 m m 2 : 7 0 6 = B B g ",
"g e 1 2 % m @ @ @ N S u.      7 N D d l F -.G D 5 1 1 2 , m 2 , > 3 5 S     0 4 s D 4 0 m V J H 5 8 6 z 8 , m , 2 0 1 M Z N < F ",
"f.#., , 2 R > , , N w         7 5 S D S :.h S e D N 3 k m %   6 3 7 ..>.      S 9 6 , q 3 Z r.4.Z d 4 B 9 4 V 5 C S 7 1 ; 7 4 q ",
"N v V V m V 5 4 3 6         G 2 5 k w 1 h 0 w 6 D B S 9 q 4     m   C         4.5 w , 1 3 A S F k g 9 F j I %.  N m g u w z 6 2 ",
"K ( ! Y H ` H v.  9       F 5 S z 5.D D 1 w 7 7 v ^ 5 1 2 2 ) V 2 m M c     #.e.q 4 9 q S H 0 F 8.4.    7 N g.  J V 4 q 5 B f.{ ",
"  0.{ G w h z   e N : - 5 e.N F   a.Z B , 4 S 4 N 5 > 1 > C F.S., 2 2 1 h   ..B 2 1 0 e e ~ Z e :.T O.S F F     v.) ~ +.  I N.s.",
"    n.v.D j     H p r 1 3 Z Z H F U D B 5 5 0 B Z 3 2 # @ m 3 3 V 3 6 , q   #.A 5 1 S S D ! V K e S B N c       v L ^ ^ 4.      ",
"      g l h       7 + + , C G G H C V C 5 4 L w 2 3 9 : 4 4 Z C 7 m M 2 ; 9 D [ N 4 q S H L J D B B D h         l Z D h     Z.c.",
"        4.8.      4 < o 4 5 e U 0 N B S 0.5 U   ^ ~ j s       <.  i N 6 3 ~ ! A.^ 5 2 5 6 B H y.F d D     d       8 2 g         ",
"      c   L p.  L < 8 # 9 9 3.>.K H e 5 q 3 h h F H S B j >.|     1 6 8 N ~ M M C Z 4 > 7 e d.q.  y.H s   w j     : m % a.N.    ",
"  c h S     e <.n Z V 1 4 0   e D <.D N N S S 3 B 5 7 5 4.H m N S m > 4 M V e g ^ Z 7 + :   c 4.  G -.9 p q e g   8 1 3 h       ",
"  D : 6 <.B 4.D z 5 2 5 7 f g c G U H e l D w < , 5   c   D m 3 N M m M , % 7 ~ D J 7 7 h l h h         h ^ N =   4 m 3 D #.l   ",
"q e h       j 9   J B S w     S   4.3.$.F C u q % 7 6 l   j l e 1 : 4 > , - J A.C ^ M M 4 H h 9 l   e l 0 X.N % 6 3 M 1 N a.3.#.",
"0 e d     -.Z N e M B B G 3.S G k 7.  w.w B 5.  u # 8     6   a.f B m #   = V ` ( Z M Z N m 3 q h 8.0 e e S e % 2 m 2 @ m M ~ a.",
"D H k -.M S D 4 e h H G 5.l       c q 8 j       9 # 1 - 1 % 9 Z J p a.  # % 9 a.( V l Z N N V 5 J   e q 0 s e :.0 N , , M V S N ",
"9 1 4 g j F S w s   e G v k a.  <.0 2 7       9 8.      1 r   5     T A , % 8 2 M 4 k M 4 < 5 D D Z 3.d 8 s 5.e F 4 3 2 3 V ` V ",
"7 9 z d     D 0 6 0 0 Z w 5 7.r.n.d.k 5   h ) 5     M , N w # & =   y.Z u e d.  N 3 g s - w 4 0 C ^ s u @ :   F V 2 5 > 3 2 m > ",
"8 c   j 9   J M 1 > 3 q -.  l.u.g.          4.  w 6     ; + @ - %   : 3 7   d     q k   5 0 K S V m 1 N 4 8 g S Z m 0 > 2 < , % ",
"  f.l N q G ^ 0 1 3 S S     l D F c     e A 9 m , , D e 3 > + 4 5 M 9   2 <   g     L I A V V 1 2 2 9 F q m 0 D q   9 q > < 7 x ",
"          G D w w 0 4.H r.u e j 4.w.w.h F D C e p 3 M m , , 1 L D N B   5 u +   q   #.4.} A T h > > 2 B N B F e 9       : q #   ",
"          v.y.D 7 0 0 s e M q j.      F 4.        O , 2 V ! B { #.  Y ~ M s = = < 0 4.k S q 1 2 @ < 3 < 8 9 G l             s   ",
"    l T 0.v.S B < 4 1 1 m S ~ e.            S.N 8 X # > ! 3.~ K b M.) C S S f 2 % 1 f   , M 0 , m 1 2 7       F j     w G q ; 1 ",
"1 d L y.t.4.e N 4 2 # < 4 4 G t.        8.j.a.  & o , V H  .F D *.  F v   M l     1 y   # m < 1 > < 1 G       4.8.    0 S M 4 > ",
"3 1 u       9 B M B s d - 6 9 S v     D I f.    2 @ 0 0 v F           L     h d.  C 6 = 0 5 N N w d w j                 8 % , 2 ",
"m 6 g         Z G 9   6 : 8 6 N               B V 8 , 7   u.          S       5.8.S 1 5 j.d.e 7   S 8 L C 5   k h g j   h 7 1 > ",
"M             w L B e F g q p F       D v   U K j 0 N 4 9 D           q J         N 4 S a.d.S 4.  Y J M M N w.e s h j   F w B M ",
"7             q Z 2     7.    4.    C...4.  u 2 C B   d.k 8.l s.    s.h a S     D N l   >.c.  z.    L < 2 m J 8 7 k w.h.#.G m 5 ",
"+.            0 5 D b.  t.w   :.    i.*.x - % = 3 w         j         l l J g m V C       0.    5.y B 8 5 2 m 1 B D     k M V ! ",
"Z X.          9 6 t   l 8.q s e   B.H <.h C m 6 , D   w 4 >.            D B m V V 7     l.C ..h Z u 6 @ 3 M M N S G l     m m ] ",
"C Q           d w < S   d 5 1 9       s -.V m : M q w 0 F 7.l           9 0 7 4 V G       x.G :.5 z ; 1 * D 9 w.D ~ h   w D V ` ",
"V A D L       f 7 0 s   F 2 N d     f   D { X.F C s.  6 q h :           6 2 , m m w     N.e.  -.F   < 7   8.    h.B 0 e 5 B V S ",
"m 1 B q H j N , M B   6 h 5 C w     S w q R ) 4 e d     F N 3 c A 8.  0 < 5 , , 1 6           d s l q     3.    Y F u S D M R , ",
", > 5 5 5 8 y ; 4 S F 0 N S k...H w j f 8 m m 2 : 7 0 7 - B B g I ..9 q v h . @ $ 0 k   q.L e 7 3 N     -.F   G B e 0 N 7 N 4 3 ",
"> 2 4 S     q 4 s S 4 0 m C J H 3 8 6 c 8 , m , 2 0 1 N Z N < S g F , 2 % m @ @ @ N S u.      7 N D d l F -.G S N < 1 2 , m , 2 ",
"3 w ..3.      q 9 7 , 0 3 H U r.Z d 0 N 9 4 V 5 C S 4 7 ; 7 4 q f.#., , 2 R > , , N w         0 5 S D S >.h D e D N 3 h m <   - ",
"m   C         3.N w , 4 5 A S e k g d F j J %.  N m d p 7 z 6 2 N a.V V M V 5 4 3 6         G 2 3 c w 1 h 0 9 6 B Z S 9 0 4     ",
"3 m M k     #.e.q 0 8 q S H 0 F 8.4.    7 N g.  J V 4 q 5 B f.%.J ( ! Y D ! J v.  w       F 5 q z 5.B S 4 w 9 7 v K 5 1 2 3 ) V ",
"4 2 2 1 h   O.B 2 1 4 F e ~ Z e -.T ) S 4.F     v.) ) O.  I k.s.  w.{ F w h z   e N : - 5 e.N F   a.A B , 4 S 5 N N > 7 > C F.D.",
"V 2 < , 0   v.C 5 1 N F D ! V A e S B N c       a.G ^ ^ r.          &.v.D j     J p r 1 3 Z Z H F G D M 5 4 0 B M 3 , > @ m 3 3 ",
"1 m m 2 y 9 B [ 5 4 q F H U I D B B D j         7.Z D h     Z.h.      g l l       1 & o 2 V G G K C Z C 5 4 H w 2 3 w u 4 4 M C ",
"  i N < 3 ^ ! } ^ 5 2 5 6 M J Y F 9 S     d       8 4 d                 3.:.      0 < o 2 q e G 0 N B S w.5 U   ^ ~ j s       4.",
"  0 - 9 N W B V C Z 7 > 7 e d.q.  t.H u   w j     : m < a.N.          c   H p.  L < : # w 9 4.4.T H w 5 0 3 h h 4.D S B j 3.X.  ",
"S m > 4 B Z e d ^ C 7 + :   z e.  G 4.d p q e d   : 1 3 h         c e e     e <.n Z V 4 2 9   e B 4.D B N S S 3 M 3 7 5 4.H m N ",
"N V m M , % 6 ~ D J 7 7 w l h h         w ^ N $   4 m 3 D #.l     D - 8 4.B F G z 5 4 q 7 f z k G U J j h D w < , 5   c   D m m ",
"1 y 4 > , - J A.C ~ M B 4 D l w l   e k 0 X.5 < 6 5 M , N a.3.#.e e h       j w   J M S e     S   G 4.$.F C u q % 6 7 k   j l e ",
"s B m #   = V ` ( V M C N N 2 q l >.w q e F w % 2 M 1 # m M ^ a.7 F d     >.Z N e M N B G >.S G d a.  0.w B 5.  u # 9     6   a.",
"J p d.  # % 9 a.{ B k Z N N V 5 J   e e 0 s F :.0 N , , M V S N D H h j M S D 1 w h H G :.l       c q 8 -.      8 # 1 - 1 6 9 B ",
"    T Z , % 8 2 M 4 g M 2 6 5 B D Z 3.d : s 8.e q 4 3 2 3 V ` C 9 4 4 g e G S w d   e G c k s.  3.0 1 0       9 8.      1 t   q ",
"=   y.Z : F d.  N 3 g d - w 4 4 C C f 8 @ :   F Z 4 5 > 3 2 m > 0 8 z g     D 0 1 0 0 Z w 5 7.U n.q.k 5   h ( q     M 1 N 9 # $ ",
"%   : 3 7   d     q k   5 q K F V m 1 S 4 8 g S Z m 0 < 2 < < % : c   j 9   I m , > 3 q -.  x.z.g.          3.  w 7     ; o @ - ",
"3 B 9   2 6   f     L I A V V 1 2 2 9 F 0 M 0 D 5   8 S > > 7 x   f.j N q G ^ w 1 5 S S     l D F c     e C w 3 , > B e 3 % + 4 ",
"D N B   N u +   e   T G } C T h < # 2 N N B F e 9       u q #             G D w w 0 4.H r.s q :.r.w.w.j F S C w u 3 m M , , 1 L ",
"v.  Y W M s = - % q 4.l S q 1 2 @ 1 3 < 8 9 G l             s             v.y.L 7 7 w 8 e M q j.      F e.        O 2 2 M ! B { ",
"b M.) C S S u 2 % 1 f   1 M 0 , m 1 2 1       F j     0 G q : <     l #.4.v.e M > 4 1 7 5 S W e.            S.N 8 X # > Q w.^ K ",
"*.  F v   N l     1 ;   # 3 < 4 , % 4 G       4.8.    w N M 4 > 1 d L y.m.4.e N 2 2 # < 2 0 G t.        7.u.a.  & o , V K  .F D ",
"      I     h d.  C 6 = 0 5 N N w d w h                 8 % , 2 2 1 u       9 B B N d g - 6 9 D c     D I f.    , @ 0 0 v F     ",
"      N       7.w.q 1 q j.d.e 7   S 9 L C q   k h g h   h 7 1 > 3 7 g         B L 9   6 ; 8 6 N               B V 8 , 7   u.    ",
"      q L         N 4 q a.s.S r.  T H M M N 3.e s d -.  F 9 M M M             e L B e S z q p F       D v   U K l 5 N 4 9 D     ",
"    g.h a S     D M l   :.c.  z.    G 1 2 m J 8 7 l w.h.v.G M 5 7             q Z 2     7.    4.    C.$.4.  u 2 C B   d.k 8.l s."
};
